<svg width="160" height="160" viewBox="0 0 160 160" fill="none" xmlns="http://www.w3.org/2000/svg">
<path d="M24.2227 114.586L23.5635 114V110.191L24.2227 109.605C27.7871 109.557 30.082 109.386 31.1074 109.093C32.1328 108.751 33.0361 108.116 33.8174 107.188C34.6475 106.212 36.2832 103.087 38.7246 97.8135L46.415 81.1143L66.3369 35.9971C70.0967 27.1592 73.832 18.3213 77.543 9.4834H82.3037L113.578 83.0186L117.753 92.833C118.974 95.6162 120.365 98.6436 121.928 101.915C123.539 105.187 124.638 107.115 125.224 107.701C125.858 108.287 126.615 108.751 127.494 109.093C128.422 109.386 130.448 109.557 133.573 109.605L134.159 110.191V114L133.573 114.586C128.397 114.146 123.734 113.927 119.584 113.927C111.479 114.171 103.373 114.391 95.2676 114.586L94.6816 114V110.191L95.2676 109.605C100.736 109.508 104.154 109.288 105.521 108.946C106.889 108.556 107.572 107.701 107.572 106.383C107.572 105.309 107.23 103.893 106.547 102.135L97.5381 79.7959H55.1309L47.1475 98.5459C45.7314 101.915 45.0234 104.381 45.0234 105.943C45.0234 107.164 45.6826 108.067 47.001 108.653C48.3193 109.239 51.6396 109.557 56.9619 109.605L57.6211 110.191V114L57.0352 114.586C50.7363 114.195 45.2188 114 40.4824 114C35.1113 114 29.6914 114.195 24.2227 114.586ZM57.6211 73.4971H94.6816L76.2979 29.332L57.6211 73.4971Z" fill="#4B0082"/>
<path d="M24.2227 114.586L22.2296 116.828L23.1749 117.668L24.4364 117.578L24.2227 114.586ZM23.5635 114H20.5635V115.347L21.5704 116.242L23.5635 114ZM23.5635 110.191L21.5704 107.949L20.5635 108.844V110.191H23.5635ZM24.2227 109.605L24.1816 106.606L23.0645 106.621L22.2296 107.363L24.2227 109.605ZM31.1074 109.093L31.9316 111.977L31.9943 111.959L32.0561 111.939L31.1074 109.093ZM33.8174 107.188L31.5315 105.246L31.5226 105.256L33.8174 107.188ZM38.7246 97.8135L41.447 99.0738L41.4495 99.0684L38.7246 97.8135ZM46.415 81.1143L49.14 82.3692L49.1499 82.3477L49.1594 82.3261L46.415 81.1143ZM66.3369 35.9971L69.0813 37.2089L69.0895 37.1902L69.0975 37.1715L66.3369 35.9971ZM77.543 9.4834V6.4834H75.5489L74.7769 8.32196L77.543 9.4834ZM82.3037 9.4834L85.0644 8.30928L84.2879 6.4834H82.3037V9.4834ZM113.578 83.0186L110.817 84.1927L110.818 84.1928L113.578 83.0186ZM117.753 92.833L114.992 94.0073L114.999 94.0227L115.006 94.038L117.753 92.833ZM121.928 101.915L119.221 103.208L119.228 103.224L119.236 103.241L121.928 101.915ZM125.224 107.701L123.102 109.822L123.145 109.865L123.189 109.906L125.224 107.701ZM127.494 109.093L126.407 111.889L126.498 111.924L126.591 111.954L127.494 109.093ZM133.573 109.605L135.695 107.484L134.835 106.625L133.62 106.606L133.573 109.605ZM134.159 110.191H137.159V108.949L136.281 108.07L134.159 110.191ZM134.159 114L136.281 116.121L137.159 115.243V114H134.159ZM133.573 114.586L133.319 117.575L134.709 117.693L135.695 116.707L133.573 114.586ZM119.584 113.927V110.927H119.539L119.494 110.928L119.584 113.927ZM95.2676 114.586L93.1463 116.707L94.055 117.616L95.3398 117.585L95.2676 114.586ZM94.6816 114H91.6816V115.243L92.5603 116.121L94.6816 114ZM94.6816 110.191L92.5603 108.07L91.6816 108.949V110.191H94.6816ZM95.2676 109.605L95.214 106.606L94.0028 106.628L93.1463 107.484L95.2676 109.605ZM105.521 108.946L106.249 111.857L106.298 111.845L106.346 111.831L105.521 108.946ZM106.547 102.135L109.343 101.047L109.336 101.03L109.329 101.013L106.547 102.135ZM97.5381 79.7959L100.32 78.6739L99.563 76.7959H97.5381V79.7959ZM55.1309 79.7959V76.7959H53.1476L52.3706 78.6207L55.1309 79.7959ZM47.1475 98.5459L44.3872 97.3706L44.3818 97.3835L47.1475 98.5459ZM56.9619 109.605L58.955 107.363L58.1143 106.616L56.9894 106.606L56.9619 109.605ZM57.6211 110.191H60.6211V108.844L59.6142 107.949L57.6211 110.191ZM57.6211 114L59.7424 116.121L60.6211 115.243V114H57.6211ZM57.0352 114.586L56.8495 117.58L58.1998 117.664L59.1565 116.707L57.0352 114.586ZM57.6211 73.4971L54.858 72.3286L53.0952 76.4971H57.6211V73.4971ZM94.6816 73.4971V76.4971H99.1799L97.4513 72.3442L94.6816 73.4971ZM76.2979 29.332L79.0675 28.1792L76.3197 21.5779L73.5348 28.1636L76.2979 29.332ZM26.2157 112.344L25.5566 111.758L21.5704 116.242L22.2296 116.828L26.2157 112.344ZM26.5635 114V110.191H20.5635V114H26.5635ZM25.5566 112.434L26.2157 111.848L22.2296 107.363L21.5704 107.949L25.5566 112.434ZM24.2637 112.605C26.0777 112.58 27.6088 112.524 28.84 112.432C30.0131 112.345 31.1042 112.214 31.9316 111.977L30.2833 106.208C30.0853 106.265 29.5162 106.365 28.3944 106.449C27.3307 106.528 25.9321 106.582 24.1816 106.606L24.2637 112.605ZM32.0561 111.939C33.6678 111.402 35.0195 110.418 36.1121 109.121L31.5226 105.256C31.0527 105.814 30.5978 106.1 30.1587 106.247L32.0561 111.939ZM36.1032 109.131C36.7663 108.351 37.5234 107.034 38.3246 105.504C39.1748 103.879 40.2171 101.73 41.447 99.0738L36.0022 96.5531C34.7907 99.1699 33.7945 101.22 33.0088 102.721C32.1744 104.315 31.6985 105.049 31.5316 105.246L36.1032 109.131ZM41.4495 99.0684L49.14 82.3692L43.6901 79.8594L35.9997 96.5586L41.4495 99.0684ZM49.1594 82.3261L69.0813 37.2089L63.5925 34.7853L43.6707 79.9025L49.1594 82.3261ZM69.0975 37.1715C72.8591 28.3293 76.5963 19.4871 80.309 10.6448L74.7769 8.32196C71.0678 17.1555 67.3343 25.9891 63.5763 34.8227L69.0975 37.1715ZM77.543 12.4834H82.3037V6.4834H77.543V12.4834ZM79.543 10.6575L110.817 84.1927L116.339 81.8444L85.0644 8.30928L79.543 10.6575ZM110.818 84.1928L114.992 94.0073L120.514 91.6587L116.339 81.8443L110.818 84.1928ZM115.006 94.038C116.241 96.8557 117.647 99.9127 119.221 103.208L124.635 100.622C123.084 97.3744 121.706 94.3767 120.5 91.628L115.006 94.038ZM119.236 103.241C120.054 104.901 120.762 106.261 121.353 107.3C121.885 108.233 122.485 109.205 123.102 109.822L127.345 105.58C127.377 105.611 127.134 105.326 126.567 104.33C126.06 103.441 125.413 102.201 124.619 100.589L119.236 103.241ZM123.189 109.906C124.124 110.769 125.21 111.423 126.407 111.889L128.581 106.297C128.02 106.079 127.593 105.805 127.258 105.497L123.189 109.906ZM126.591 111.954C127.39 112.206 128.408 112.342 129.458 112.43C130.565 112.523 131.927 112.58 133.526 112.605L133.62 106.606C132.094 106.582 130.881 106.529 129.962 106.451C128.985 106.369 128.526 106.272 128.398 106.232L126.591 111.954ZM131.452 111.727L132.038 112.313L136.281 108.07L135.695 107.484L131.452 111.727ZM131.159 110.191V114H137.159V110.191H131.159ZM132.038 111.879L131.452 112.465L135.695 116.707L136.281 116.121L132.038 111.879ZM133.827 111.597C128.587 111.152 123.837 110.927 119.584 110.927V116.927C123.632 116.927 128.208 117.141 133.319 117.575L133.827 111.597ZM119.494 110.928C111.394 111.172 103.295 111.392 95.1953 111.587L95.3398 117.585C103.451 117.39 111.563 117.17 119.674 116.925L119.494 110.928ZM97.3889 112.465L96.803 111.879L92.5603 116.121L93.1463 116.707L97.3889 112.465ZM97.6816 114V110.191H91.6816V114H97.6816ZM96.803 112.313L97.3889 111.727L93.1463 107.484L92.5603 108.07L96.803 112.313ZM95.3211 112.605C98.0781 112.556 100.351 112.475 102.125 112.361C103.832 112.252 105.274 112.101 106.249 111.857L104.794 106.036C104.402 106.134 103.452 106.264 101.74 106.374C100.096 106.479 97.9258 106.558 95.214 106.606L95.3211 112.605ZM106.346 111.831C107.45 111.515 108.57 110.927 109.402 109.887C110.252 108.825 110.572 107.579 110.572 106.383H104.572C104.572 106.454 104.563 106.446 104.582 106.384C104.604 106.317 104.647 106.226 104.717 106.138C104.786 106.052 104.847 106.011 104.862 106.002C104.872 105.996 104.828 106.024 104.697 106.062L106.346 111.831ZM110.572 106.383C110.572 104.756 110.075 102.93 109.343 101.047L103.751 103.222C104.386 104.855 104.572 105.861 104.572 106.383H110.572ZM109.329 101.013L100.32 78.6739L94.7558 80.9179L103.765 103.257L109.329 101.013ZM97.5381 76.7959H55.1309V82.7959H97.5381V76.7959ZM52.3706 78.6207L44.3872 97.3707L49.9077 99.7211L57.8911 80.9711L52.3706 78.6207ZM44.3818 97.3835C42.964 100.757 42.0234 103.719 42.0234 105.943H48.0234C48.0234 105.043 48.4989 103.073 49.9131 99.7083L44.3818 97.3835ZM42.0234 105.943C42.0234 107.128 42.3555 108.292 43.0944 109.305C43.8109 110.287 44.7796 110.949 45.7826 111.395L48.2194 105.912C47.904 105.772 47.8839 105.689 47.9412 105.768C47.9699 105.807 47.9962 105.858 48.0122 105.91C48.0275 105.959 48.0234 105.976 48.0234 105.943H42.0234ZM45.7826 111.395C46.9287 111.904 48.5234 112.157 50.1945 112.317C51.9753 112.487 54.2313 112.581 56.9344 112.605L56.9894 106.606C54.3703 106.582 52.305 106.492 50.7654 106.344C49.9961 106.271 49.3933 106.186 48.9386 106.098C48.7129 106.054 48.5399 106.012 48.4121 105.976C48.3491 105.958 48.3017 105.942 48.2681 105.93C48.2341 105.918 48.219 105.912 48.2194 105.912L45.7826 111.395ZM54.9688 111.848L55.628 112.434L59.6142 107.949L58.955 107.363L54.9688 111.848ZM54.6211 110.191V114H60.6211V110.191H54.6211ZM55.4998 111.879L54.9138 112.465L59.1565 116.707L59.7424 116.121L55.4998 111.879ZM57.2208 111.592C50.8791 111.198 45.2971 111 40.4824 111V117C45.1404 117 50.5936 117.192 56.8495 117.58L57.2208 111.592ZM40.4824 111C35.0386 111 29.5473 111.198 24.0089 111.594L24.4364 117.578C29.8355 117.193 35.1841 117 40.4824 117V111ZM57.6211 76.4971H94.6816V70.4971H57.6211V76.4971ZM97.4513 72.3442L79.0675 28.1792L73.5282 30.4849L91.912 74.6499L97.4513 72.3442ZM73.5348 28.1636L54.858 72.3286L60.3842 74.6655L79.0609 30.5005L73.5348 28.1636Z" fill="white"/>
<path d="M103.857 36.6938C105.438 36.5091 107.673 35.6871 112.395 33.4685L112.396 33.4682L115.794 31.876L115.897 31.5451L115.898 31.5444C116.527 29.5331 117.21 26.293 117.422 24.2465L117.422 24.2445C117.622 22.3841 117.587 20.8611 117.34 19.6853C117.092 18.5086 116.644 17.7253 116.056 17.272C115.603 16.9244 114.913 16.7021 114.012 16.6619C113.116 16.6219 112.048 16.764 110.883 17.1052L110.882 17.1053C108.365 17.8401 104.566 19.8235 101.058 22.2616C100.502 22.6483 100.149 22.8917 99.9481 22.9915C99.8969 23.0169 99.8135 23.0551 99.7169 23.0714C99.6382 23.0847 99.4494 23.097 99.2856 22.968C99.2328 23.0274 99.1772 23.09 99.1191 23.1555C98.6585 23.6746 98.0407 24.3763 97.38 25.1362L97.3784 25.138C96.4318 26.2164 94.9949 27.8611 93.7025 29.3403C93.1752 29.9438 92.672 30.5198 92.236 31.0185L92.2357 31.0188C91.7575 31.5649 91.3188 32.0657 90.916 32.5256C88.6028 35.166 87.4727 36.456 86.8407 37.2333C86.2517 37.9578 86.1204 38.2031 85.8334 38.7391C85.7715 38.8548 85.7022 38.9841 85.6196 39.1348L85.6194 39.1351C85.3913 39.5499 85.1739 39.9576 85.0067 40.2803C84.923 40.4418 84.8527 40.5805 84.8003 40.6874C84.774 40.7409 84.753 40.7848 84.7374 40.8187C84.7296 40.8356 84.7236 40.8489 84.7193 40.859C84.7147 40.8697 84.7133 40.8734 84.7139 40.8719C84.6899 40.9366 84.6573 40.9855 84.6437 41.0054C84.6256 41.0319 84.6063 41.0568 84.589 41.0782C84.554 41.1212 84.5106 41.1699 84.4623 41.2219C84.3647 41.3268 84.2275 41.4659 84.0528 41.6379C83.7022 41.983 83.1845 42.4759 82.4926 43.1237C81.108 44.4201 79.0156 46.3462 76.1446 48.9694L76.1443 48.9696L67.8918 56.4993L67.2436 57.8413L67.2432 57.842C64.9143 62.6438 63.7663 68.3446 64.2252 72.6463L64.2253 72.647C64.2568 72.9469 64.2766 73.1777 64.2837 73.3338C64.287 73.4065 64.2887 73.486 64.2827 73.5532C64.2813 73.5688 64.2751 73.6619 64.229 73.7578C64.21 73.7972 64.1271 73.961 63.92 74.0245C63.6782 74.0987 63.4988 73.9735 63.439 73.9213C63.3763 73.8666 63.3414 73.809 63.3287 73.7871C63.3121 73.7586 63.3002 73.7326 63.2925 73.7146C63.2772 73.6784 63.2649 73.6417 63.2555 73.6113C63.2362 73.5485 63.2161 73.4699 63.1955 73.3812C63.1538 73.2016 63.1023 72.9476 63.0419 72.6234L63.0415 72.6215C62.5551 69.954 62.636 65.7437 63.2599 59.8469L63.26 59.8457C63.325 59.2459 63.3823 58.6827 63.4278 58.2081C62.8596 58.8346 62.0888 59.7001 61.246 60.6618C59.721 62.4194 57.1059 65.4152 55.0816 67.7341C54.8242 68.0289 54.5763 68.3128 54.3415 68.5819L54.3415 68.5819L50.617 72.8481L49.954 74.3333C49.954 74.3333 49.954 74.3333 49.954 74.3333C47.3311 80.2423 46.4292 88.413 47.7712 93.9395L47.7713 93.94C47.8478 94.2563 47.9168 94.5534 47.9652 94.7779C47.9892 94.8893 48.0092 94.9874 48.0225 95.0625C48.029 95.0991 48.0351 95.1374 48.0391 95.1719C48.041 95.1885 48.0434 95.213 48.0441 95.2403L48.0441 95.2405C48.0444 95.2448 48.0497 95.3381 48.012 95.4395C47.9926 95.4919 47.9676 95.531 47.963 95.5381L47.9625 95.5389C47.9537 95.5527 47.9455 95.5644 47.9401 95.5719C47.9289 95.5875 47.9167 95.6032 47.906 95.6168C47.8838 95.645 47.8547 95.6805 47.8213 95.7207C47.7537 95.8019 47.6593 95.9129 47.5459 96.045C47.3186 96.3098 47.0096 96.6657 46.6744 97.0503L46.6736 97.0512C41.6958 102.733 36.9196 108.232 33.3701 112.359C31.5952 114.423 30.1278 116.143 29.0956 117.371C28.7279 117.808 28.4162 118.182 28.1658 118.486C29.0495 118.034 30.3584 117.05 32.1518 115.444C34.1352 113.668 36.666 111.174 39.8003 107.907L39.8004 107.907C42.219 105.387 43.048 104.502 46.8176 100.36L46.8184 100.359L49.9302 96.9567L50.092 96.7798L50.3312 96.7951L50.7804 96.8239L50.7818 96.824C53.4036 96.9996 55.1102 96.9462 57.2608 96.6407L57.2613 96.6406C62.0829 95.9607 67.1575 94.1395 70.9713 91.7092L70.9725 91.7085L71.9875 91.0656L78.853 83.2044L103.857 36.6938ZM103.857 36.6938C103.692 36.709 103.534 36.7341 103.411 36.7646C103.354 36.7789 103.278 36.8003 103.209 36.8332C103.18 36.8467 103.108 36.8822 103.041 36.95C102.975 37.0164 102.805 37.242 102.938 37.528L102.944 37.5399L102.95 37.5515C103.041 37.7234 103.195 37.7818 103.228 37.7944C103.283 37.8155 103.333 37.8242 103.362 37.8284C103.422 37.8372 103.485 37.839 103.536 37.839C103.643 37.839 103.781 37.8307 103.933 37.8176C104.242 37.791 104.658 37.7408 105.113 37.6765C106.024 37.5479 107.127 37.3583 107.919 37.174C110.363 36.6223 112.692 35.9019 116.18 34.6233L116.182 34.6226C116.197 34.6171 116.212 34.6117 116.226 34.6062M103.857 36.6938L116.226 34.6062M84.7611 76.4056C84.7081 76.4191 84.6544 76.4327 84.6 76.4466C84.5996 76.4467 84.5992 76.4468 84.5987 76.4469L84.4752 75.9624L84.7611 76.4056ZM84.7611 76.4056C84.47 76.7425 84.1214 77.1452 83.7248 77.6027C82.4756 79.0435 80.7515 81.0261 78.8533 83.204L84.7611 76.4056ZM116.226 34.6062C116.069 34.7886 115.892 34.9933 115.694 35.2226C114.397 36.7217 112.182 39.2636 108.52 43.458C107.288 44.8617 106.17 46.1461 105.361 47.0821C104.957 47.55 104.629 47.9315 104.403 48.1975C104.291 48.3303 104.202 48.4358 104.141 48.5095C104.111 48.5457 104.086 48.5775 104.067 48.602C104.058 48.6131 104.046 48.6293 104.034 48.6463C104.029 48.6527 104.016 48.6726 104.002 48.6986C103.996 48.7084 103.978 48.7427 103.963 48.7898C103.957 48.812 103.942 48.8638 103.941 48.9317C103.94 48.9819 103.947 49.0917 104.017 49.2028C104.118 49.3672 104.277 49.4139 104.316 49.4245C104.38 49.4418 104.434 49.443 104.457 49.443C104.487 49.4431 104.515 49.4409 104.538 49.4381C103.804 50.5335 102.556 52.4025 101.185 54.475L116.226 34.6062ZM91.3236 70.1836C91.8917 69.3395 94.0951 66.0289 97.0536 61.5837C98.4347 59.5084 99.9805 57.1859 101.601 54.7516L91.3236 70.1836ZM91.3236 70.1836C90.7121 71.1118 90.6073 71.2213 89.7694 71.7795L91.3236 70.1836ZM98.4416 32.1594C98.4416 32.1593 98.4413 32.1604 98.4407 32.1624L98.4416 32.1594ZM97.4206 32.201C97.3776 32.5019 97.3489 33.1711 97.3353 33.8459C97.3215 34.5355 97.3226 35.2815 97.3465 35.7427L97.3465 35.7434C97.3683 36.1525 97.4604 36.8049 97.5542 37.3387C97.6014 37.6076 97.6511 37.8584 97.6958 38.0433C97.7173 38.1326 97.7413 38.222 97.7671 38.2937C97.7778 38.3236 97.8001 38.3831 97.8372 38.4418C97.8525 38.466 97.8988 38.5372 97.9843 38.5966C98.0903 38.6702 98.2982 38.7441 98.515 38.6269C98.5456 38.6105 98.5667 38.5952 98.5735 38.5902C98.5878 38.5799 98.5992 38.5706 98.6062 38.5648C98.6122 38.5598 98.6178 38.5549 98.623 38.5503C98.6303 38.5438 98.6367 38.5379 98.6418 38.5331C98.6602 38.5159 98.6807 38.4955 98.7009 38.475C98.7424 38.433 98.7967 38.3763 98.859 38.3103C98.9843 38.1777 99.1505 37.9986 99.3293 37.8051L99.3304 37.8039L99.9763 37.1003L100.175 36.8835L100.082 36.6043L99.4349 34.6583L99.4346 34.6575C99.072 33.5735 98.7269 32.517 98.6629 32.2854L98.6593 32.2722L98.6549 32.2593C98.6144 32.1387 98.5728 32.0173 98.5367 31.923C98.5192 31.8773 98.4986 31.8263 98.4766 31.7813C98.4662 31.76 98.4487 31.7261 98.4246 31.6906C98.4126 31.6729 98.3918 31.6441 98.3618 31.6135C98.3372 31.5884 98.274 31.5277 98.1723 31.49C97.9261 31.3987 97.7298 31.52 97.6494 31.5938C97.5779 31.6595 97.5415 31.7304 97.5283 31.7571C97.4971 31.8204 97.4794 31.8844 97.47 31.9218C97.4487 32.0059 97.4323 32.1065 97.4206 32.201ZM98.7098 37.9598C98.7098 37.9598 98.7094 37.9588 98.7086 37.9567C98.7095 37.9587 98.7099 37.9598 98.7098 37.9598ZM96.4834 41.9812L96.483 41.9816C92.4545 46.9623 89.8648 50.1423 88.0309 52.3515L88.0308 52.3516C87.8972 52.5127 87.7028 52.7476 87.4695 53.0296C86.89 53.7302 86.0701 54.7213 85.3432 55.5921L85.3414 55.5944C84.3319 56.8186 82.1511 59.442 80.5003 61.4145L80.4992 61.4159C79.6779 62.4045 78.9309 63.3077 78.3903 63.9672C78.1203 64.2967 77.9007 64.5667 77.7488 64.7567C77.6733 64.8511 77.6124 64.9284 77.5699 64.9842C77.5494 65.0112 77.5292 65.0382 77.513 65.0616C77.506 65.0718 77.4929 65.0909 77.4801 65.1132C77.4778 65.1173 77.4738 65.1243 77.4688 65.1338C77.4654 65.1362 77.4624 65.1384 77.4597 65.1404C77.4338 65.1597 77.4103 65.18 77.3926 65.1958C77.3558 65.2286 77.3118 65.2712 77.2637 65.319L77.2636 65.319L77.2575 65.3252C77.1219 65.4648 76.9362 65.6834 76.8359 65.8193L76.8309 65.8261L76.8261 65.833C76.7968 65.8757 76.7637 65.9253 76.7391 65.97L76.7383 65.9716C76.7306 65.9854 76.6968 66.0463 76.6794 66.1239L76.679 66.1258C76.6746 66.1447 76.6502 66.249 76.6864 66.3757C76.6391 66.3725 76.6012 66.3756 76.5804 66.3784C76.4863 66.3908 76.4129 66.4253 76.3742 66.4455C76.3282 66.4696 76.2866 66.4975 76.2505 66.5252C76.1933 66.5689 76.1327 66.6227 76.0791 66.6798C76.0387 66.7229 75.9523 66.8192 75.9051 66.9465C75.8825 67.0076 75.8174 67.2188 75.9608 67.4285C76.1146 67.6533 76.3532 67.6581 76.4341 67.6518C76.6019 67.6387 76.7295 67.5513 76.789 67.5058C76.8522 67.4574 76.9143 67.3992 76.965 67.3441C76.9908 67.316 77.0187 67.2833 77.0445 67.2479C77.0652 67.2195 77.1061 67.1608 77.1344 67.0844L77.1344 67.0843C77.1459 67.0533 77.1998 66.9081 77.1475 66.7381C77.1959 66.7404 77.2361 66.7361 77.2611 66.7315C77.3487 66.7155 77.4108 66.6796 77.4275 66.67C77.4536 66.655 77.4744 66.6402 77.4871 66.6307C77.513 66.6115 77.5366 66.5912 77.5542 66.5754C77.591 66.5425 77.635 66.5 77.6832 66.4521L77.6902 66.4452L77.6969 66.438C77.825 66.3001 78.0079 66.0914 78.111 65.9518L78.1159 65.9451L78.1207 65.9382C78.15 65.8955 78.1832 65.8458 78.2077 65.8011C78.21 65.7969 78.2182 65.7826 78.2281 65.7611C78.2304 65.7594 78.2321 65.758 78.2334 65.757C78.2677 65.7301 78.2986 65.6997 78.3183 65.6799C78.3636 65.6343 78.4261 65.5664 78.5079 65.4747C78.674 65.2886 78.9444 64.9769 79.3688 64.4813C80.2186 63.4888 81.6964 61.7469 84.2176 58.7676C84.5564 58.3709 84.8913 57.984 85.1572 57.6818C85.2904 57.5305 85.4053 57.4015 85.4942 57.3035C85.5388 57.2545 85.5758 57.2144 85.6048 57.1837C85.6193 57.1684 85.631 57.1562 85.6401 57.1469L85.6508 57.1362C85.6528 57.1342 85.654 57.1331 85.6544 57.1327C85.6917 57.0981 85.7374 57.0463 85.7711 57.0077C85.8146 56.958 85.8708 56.8921 85.9383 56.8121C86.0736 56.6518 86.259 56.4288 86.4866 56.153C86.9421 55.6011 87.5702 54.8332 88.3124 53.9221C89.797 52.0995 91.74 49.7009 93.6757 47.3036C95.6115 44.9063 97.5403 42.5097 98.9966 40.6913C99.7246 39.7822 100.335 39.017 100.769 38.4682C100.986 38.194 101.16 37.9727 101.283 37.8142C101.344 37.7352 101.394 37.6701 101.43 37.6211L101.434 37.6157C101.458 37.5839 101.505 37.5218 101.531 37.4713L101.532 37.4714L101.537 37.4597C101.581 37.3722 101.625 37.2765 101.651 37.1993C101.658 37.1789 101.668 37.1482 101.675 37.1128L101.676 37.111C101.68 37.0928 101.702 36.9922 101.672 36.8743C101.654 36.8026 101.6 36.6577 101.442 36.5628C101.281 36.4657 101.123 36.4878 101.044 36.51C100.921 36.5451 100.841 36.6203 100.828 36.6332L100.826 36.6345L100.811 36.6488L100.797 36.6643C100.762 36.7021 99.7833 37.9101 98.3987 39.6184C97.8183 40.3345 97.1666 41.1386 96.4834 41.9812ZM77.3483 65.7858C77.3452 65.7804 77.3421 65.775 77.3392 65.7696C77.3842 65.786 77.427 65.8089 77.466 65.8378C77.4523 65.8535 77.4386 65.8693 77.425 65.8851C77.3959 65.8559 77.37 65.8227 77.3483 65.7858ZM77.4796 65.9324C77.4934 65.9167 77.5072 65.9008 77.5209 65.8851C77.5504 65.9145 77.5766 65.948 77.5985 65.9853C77.6017 65.9907 77.6047 65.9962 77.6076 66.0015C77.5621 65.985 77.5189 65.9618 77.4796 65.9324ZM84.8218 52.2423L84.8211 52.243C83.6914 53.4429 82.5424 54.6606 81.9063 55.3347C81.7186 55.5336 81.5756 55.6852 81.4909 55.775C80.8171 56.4812 79.7505 57.6889 69.5035 69.3086L69.5034 69.3087C67.0465 72.0973 64.8326 74.6405 63.2384 76.5C62.4416 77.4294 61.798 78.1898 61.3559 78.7253C61.1354 78.9923 60.962 79.207 60.8441 79.36C60.786 79.4354 60.7361 79.5026 60.6997 79.5565C60.6827 79.5816 60.6604 79.616 60.6411 79.6528C60.6324 79.6695 60.6149 79.7042 60.6008 79.7489C60.5938 79.7712 60.5827 79.8112 60.5784 79.8621C60.5746 79.9076 60.572 80.0069 60.6236 80.1179L60.6577 80.1913L60.7132 80.2502C60.823 80.3667 60.9573 80.4013 61.0489 80.4065C61.1325 80.4113 61.1972 80.3938 61.2278 80.3842C61.2893 80.3648 61.3326 80.3377 61.3445 80.3303C61.376 80.3105 61.399 80.2912 61.4054 80.2857L61.4056 80.2856C61.4235 80.2705 61.4392 80.2554 61.448 80.2468C61.4683 80.227 61.4933 80.2013 61.52 80.1734C61.5749 80.1159 61.6526 80.0326 61.7492 79.9275C61.9433 79.7167 62.2209 79.411 62.5612 79.0331C63.2418 78.2771 64.1764 77.2289 65.2015 76.0662C71.1521 69.3619 74.8377 65.2188 84.043 54.8999C86.3815 52.2828 87.4714 51.0626 87.9638 50.5019C88.1846 50.2505 88.309 50.1057 88.3649 50.0262C88.3857 50.0125 88.4032 49.9996 88.4171 49.9891C88.4803 49.9407 88.5424 49.8825 88.5931 49.8274C88.6189 49.7993 88.6468 49.7666 88.6726 49.7312C88.6933 49.7028 88.7342 49.6441 88.7625 49.5677L88.7625 49.5676C88.7766 49.5297 88.8541 49.3207 88.723 49.1047C88.5609 48.8377 88.2812 48.8521 88.2085 48.8617C88.1144 48.8741 88.041 48.9086 88.0023 48.9289C87.9563 48.9529 87.9147 48.9808 87.8786 49.0085C87.8214 49.0522 87.7608 49.106 87.7072 49.1631C87.6702 49.2026 87.5945 49.2868 87.5458 49.3985C87.5323 49.4115 87.5173 49.4261 87.5016 49.4417C87.4582 49.4846 87.3988 49.5447 87.3261 49.6191C87.1801 49.7683 86.9749 49.9807 86.7261 50.2401C86.2282 50.759 85.5528 51.4688 84.8218 52.2423ZM88.4695 49.781C88.4661 49.7899 88.4628 49.7977 88.4597 49.8043C88.4614 49.7949 88.4628 49.7851 88.464 49.7749C88.4641 49.7746 88.4641 49.7743 88.4641 49.774C88.4666 49.7524 88.4679 49.7294 88.4674 49.7052C88.4658 49.634 88.4473 49.526 88.3735 49.4235C88.3614 49.4066 88.3478 49.3899 88.3325 49.3735C88.234 49.268 88.1177 49.2314 88.0401 49.2196C88.0336 49.2186 88.0273 49.2178 88.0214 49.2171C87.9501 49.2091 87.8879 49.2182 87.8461 49.2279C87.8428 49.2287 87.8397 49.2295 87.8367 49.2302C87.8304 49.2318 87.8247 49.2334 87.8196 49.2349C87.8219 49.2279 87.8237 49.2232 87.8245 49.221L87.8249 49.2201C87.8253 49.2189 87.8258 49.2177 87.8262 49.2166C87.8318 49.2018 87.8372 49.19 87.8415 49.1814C87.8428 49.1787 87.8442 49.1761 87.8454 49.1737C87.8614 49.1661 87.9085 49.1451 87.9782 49.1387C87.9802 49.1385 87.9822 49.1383 87.9842 49.1382C88.0444 49.1335 88.2681 49.1334 88.4143 49.3472C88.4404 49.3853 88.4591 49.4233 88.4721 49.46C88.527 49.6145 88.4822 49.7469 88.4708 49.7775C88.4704 49.7786 88.4699 49.7798 88.4695 49.781ZM76.2173 66.6904C76.2333 66.6828 76.2804 66.6618 76.3501 66.6554C76.3521 66.6552 76.3541 66.655 76.3561 66.6549C76.4163 66.6502 76.64 66.6501 76.7862 66.8639C76.8123 66.902 76.831 66.94 76.844 66.9767C76.8988 67.1312 76.8541 67.2636 76.8427 67.2941C76.8423 67.2953 76.8418 67.2965 76.8414 67.2977C76.8371 67.3089 76.8329 67.3183 76.8293 67.3259C76.828 67.3286 76.8267 67.3312 76.8254 67.3337C76.8245 67.3355 76.8236 67.3373 76.8227 67.339C76.8022 67.3482 76.7635 67.3629 76.711 67.3698C76.7054 67.3705 76.6971 67.3714 76.6867 67.3721C76.6026 67.3774 76.3778 67.3672 76.24 67.1402C76.2226 67.1115 76.2091 67.0831 76.1989 67.0554C76.1379 66.8908 76.1907 66.7527 76.1964 66.7377L76.1968 66.7368C76.1972 66.7356 76.1977 66.7344 76.1981 66.7332C76.2037 66.7185 76.2092 66.7067 76.2134 66.6981C76.2147 66.6954 76.2161 66.6928 76.2173 66.6904ZM76.3739 67.1203C76.3611 67.1548 76.3874 67.1631 76.4321 67.1419C76.4479 67.1345 76.4658 67.1234 76.4852 67.1086C76.5269 67.0767 76.5728 67.0333 76.6083 66.993C76.6364 66.9611 76.658 66.9312 76.6656 66.9106C76.6811 66.8687 76.6527 66.8641 76.6061 66.8885C76.5905 66.8967 76.573 66.908 76.5543 66.9223C76.5117 66.9549 76.4657 66.9966 76.4302 67.0367C76.4036 67.067 76.3828 67.0963 76.3739 67.1203Z" fill="white" stroke="#4B0082"/>
</svg>
