<svg width="128" height="128" viewBox="0 0 128 128" fill="none" xmlns="http://www.w3.org/2000/svg">
<g clip-path="url(#clip0_14_4)">
<path d="M43.8169 95.1666C37.8794 95.1666 33 98.7526 33 103.083C33 107.512 37.8794 111 43.8169 111H101.585C96.8628 106.277 96.8628 99.8696 101.585 95.147H43.8169V95.1666Z" fill="#A3A3A3"/>
<path d="M101.585 15H45.4238V91.2082H101.585V15Z" fill="#A3A3A3"/>
<path d="M41.5438 15.3135C36.6644 16.6069 33 21.7018 33 27.8745V95.0098C35.2143 93.109 38.1733 91.8157 41.5438 91.4238V15.3135Z" fill="#A3A3A3"/>
</g>
<g clip-path="url(#clip1_14_4)">
<path fill-rule="evenodd" clip-rule="evenodd" d="M92.2495 57.0274C92.4068 59.6574 92.936 62.2842 92.5141 64.7165L91.2323 64.1518C91.2293 57.3385 90.75 52.5949 88.4255 46.0737C86.6787 41.1866 84.404 36.9956 80.9775 33.1141C79.154 31.046 76.7361 28.6393 74.2476 27.391C73.568 27.0492 72.8544 26.7739 72.0908 26.5856C79.539 31.2063 84.4675 37.7025 87.3742 45.9115C88.5624 49.2605 89.3777 52.809 89.9925 56.4654L86.726 55.981L88.2237 55.7779L83.8966 53.483C85.8016 53.4594 87.4112 54.2342 88.1711 53.7677C83.5332 51.9451 80.0104 49.6008 77.9697 46.6866C79.0301 46.8894 80.2396 47.1605 80.947 47.0752C76.9214 43.9723 75.2379 40.2895 72.7395 36.6784C76.7696 39.0773 80.8395 40.2985 82.2869 39.8643C74.4275 37.8212 70.2043 34.0003 70.3417 28.0474C70.3929 27.4172 70.5515 26.8179 70.8457 26.259C72.751 22.6212 79.9517 23.6298 81.0755 27.5294C81.3009 28.3089 81.7243 29.0982 81.9874 30.0034L81.2422 25.3396C86.2218 29.1757 85.9649 31.4446 86.7094 38.7972C87.1379 36.7835 87.2034 34.8483 87.0756 32.9571C93.1816 38.0913 93.1795 45.7703 91.5588 51.749C92.4587 49.7776 92.9578 47.0854 93.2146 43.9577C94.5619 46.7307 95.1299 49.6396 93.4462 52.9396L94.5299 52.8381L93.4002 54.5315L95.0347 54.3404L92.2495 57.0274Z" fill="#050505"/>
</g>
<path d="M68.04 26.88V29.76H67.32C65.736 29.76 64.32 29.88 63.072 30.12C61.872 30.36 61.272 30.84 61.272 31.56V74.472H71.784C73.848 74.472 75.504 74.376 76.752 74.184C78.048 73.944 79.032 73.584 79.704 73.104C80.376 72.576 80.736 71.832 80.784 70.872L81.792 61.872H85.32V78H47.952V75.12H48.6C50.28 75.12 51.696 74.952 52.848 74.616C54 74.28 54.576 73.584 54.576 72.528V32.352C54.576 31.296 54 30.6 52.848 30.264C51.696 29.928 50.28 29.76 48.6 29.76H47.952V26.88H68.04Z" fill="#050505"/>
<defs>
<clipPath id="clip0_14_4">
<rect width="96" height="96" fill="white" transform="translate(16 16)"/>
</clipPath>
<clipPath id="clip1_14_4">
<rect width="32.9795" height="33.6262" fill="white" transform="matrix(-0.946409 -0.32297 -0.32297 0.946409 103.374 32.8924)"/>
</clipPath>
</defs>
</svg>
